<svg width="239" height="259" viewBox="0 0 239 259" fill="none" xmlns="http://www.w3.org/2000/svg">
<path d="M187.77 220.23C178.95 224.55 169.37 227.71 159.19 229.41C114.27 236.92 71.3 214.36 50.79 176.42C45.01 166.83 40.89 156.03 38.93 144.32C36.97 132.61 37.36 121.05 39.7 110.1C46.75 67.55 80.04 32.22 124.95 24.71C134.35 23.14 143.65 22.91 152.69 23.83C147.64 17.71 145.58 9.36003 147.72 1.28003C142.64 0.550029 137.49 0.12 132.27 0C133.24 12.89 124.24 24.63 111.24 26.8C98.33 28.96 86.08 20.93 82.69 8.58002C76.87 10.81 71.29 13.46 65.96 16.45C73.11 27.02 71.28 41.49 61.32 49.91C51.43 58.26 37.01 57.7 27.78 49.08C24.28 53.51 21.1 58.18 18.2 63.04C29.44 68.71 34.95 82 30.58 94.14C26.22 106.25 13.58 112.97 1.34 110.24C0.599996 115.23 0.15 120.3 0 125.42C12.52 124.95 23.74 133.81 25.87 146.49C27.99 159.17 20.26 171.21 8.26999 174.83C10.18 179.91 12.41 184.81 14.9 189.53C25.54 182.91 39.69 185.04 47.82 195.02C55.98 205.03 55.19 219.38 46.47 228.46C51.39 232.55 56.6 236.28 62.07 239.61C67.72 228.32 81.03 222.78 93.21 227.16C105.48 231.58 112.23 244.5 109.22 256.89C114.24 257.68 119.34 258.2 124.5 258.38C123.69 245.6 132.66 234.02 145.56 231.87C158.56 229.7 170.89 237.86 174.17 250.36C180.06 248.18 185.73 245.59 191.14 242.63C186.41 235.96 185.37 227.62 187.77 220.23Z" fill="#8B5CF6"/>
<path d="M191.84 46.4399C212.73 75.1499 218.21 114.4 206.25 147.94C205.15 150.99 203.94 153.99 202.62 156.95C211.26 172.06 217.58 183.11 218.96 185.54C227.37 174.42 233.45 161.27 236.34 146.67C244.37 106.13 225.38 66.5099 191.84 46.4399Z" fill="#8B5CF6"/>
<path d="M176.84 127.28C178.34 124.65 179.74 121.95 181.02 119.21C185.19 126.49 189.28 133.65 193.16 140.43C207.65 111.08 206.77 75.0901 191.16 46.0401C190.91 45.9001 190.67 45.7501 190.42 45.6001C192.91 58.7701 192.96 71.7501 190.91 84.1301C182.75 133.4 141.38 173.28 88.5601 178.36C79.6301 179.31 70.6601 179.17 61.8201 178.04H61.8101C63.3601 180.56 65.0201 183 66.8001 185.37C69.4701 188.92 72.3901 192.29 75.5401 195.45V195.46C75.8001 195.72 76.0601 195.96 76.3201 196.22C77.7701 197.64 79.2601 199.03 80.8101 200.36C80.8301 200.3 80.8401 200.25 80.8601 200.19C82.1401 196.06 83.7101 191 85.5001 185.23C96.4201 184.29 107.28 181.84 117.77 177.78L112.51 203.34C141.9 197.27 168.01 180.14 186.04 152.54C187 151.15 187.91 149.74 188.8 148.31L199.73 163.06C186.79 188.64 165.74 210.14 140.19 223.38C171.47 224.32 200.7 209.73 218.97 185.56C218.97 185.56 209.91 173.03 207.31 169.44C200.52 160.03 191.98 148.22 176.84 127.28Z" fill="#8B5CF6"/>
<path d="M137.97 79.6901L123.6 149.51C136.02 145.01 147.59 138.05 157.37 128.96C160.82 125.8 164.01 122.4 166.95 118.81C167.62 117.99 168.28 117.17 168.92 116.33C154.08 95.8001 145.45 83.8701 138.96 74.8901L137.97 79.6901Z" fill="#8B5CF6"/>
<path d="M190.25 45.5001C181.52 40.5101 171.85 36.8201 161.44 34.7601C109.85 24.5401 59.7501 58.0801 49.5301 109.67C47.0801 122.03 47.1502 134.31 49.3702 145.97C56.4702 149.43 64.0001 151.99 71.7601 153.51C73.7001 153.91 75.6401 154.24 77.5901 154.52C77.5901 154.52 86.0401 155.36 88.4501 155.38C90.5601 155.42 92.6801 155.4 94.7901 155.3C110.06 106.08 130.08 41.5701 132.24 34.5801C132.3 34.4001 132.34 34.2601 132.37 34.1501C133.9 36.8601 154.1 72.1601 174.63 108.04C179.8 99.7001 183.77 90.6201 186.44 81.1501C188.73 73.0301 190.08 64.6201 190.39 56.1401C190.53 52.6001 190.48 49.0501 190.25 45.5001Z" fill="#8B5CF6"/>
</svg>
