<svg width="240" height="242" viewBox="0 0 240 242" fill="none" xmlns="http://www.w3.org/2000/svg">
<path d="M26.3647 197.91C26.3647 197.91 2.73468 172.06 0.0646781 128.82H17.1747C22.2447 128.82 26.3647 124.71 26.3647 119.63V118.84C26.3647 113.77 22.2547 109.65 17.1747 109.65H0.0646781C0.0646781 109.65 -2.60533 74.43 26.3647 41.45L42.6747 54.56C46.3247 57.5 51.6147 57.21 54.9247 53.9C58.3947 50.43 58.5247 44.84 55.2147 41.21L42.4147 27.19C42.4147 27.19 61.5847 2.67 108.835 0V18.85C108.835 23.77 112.705 27.81 117.615 28.03L119.305 28.1C124.535 28.33 128.895 24.16 128.895 18.92V0C128.895 0 174.805 4.00998 198.435 27.64L184.345 42.04C180.975 45.48 180.835 50.93 184.025 54.54L185.615 56.35C188.995 60.18 194.845 60.52 198.645 57.11L213.595 43.69C213.595 43.69 239.895 65.98 239.445 108.33L219.525 109.57C214.685 109.87 210.915 113.89 210.915 118.74V119.5C210.915 124.63 215.115 128.77 220.245 128.69L239.445 128.39C239.445 128.39 242.555 169.4 212.245 197.93L171.235 168.51C171.235 168.51 215.845 112.48 170.785 70.44C125.725 28.4 73.1647 57.07 62.0147 78.46C50.8747 99.86 36.6047 125.71 66.9147 168.51L26.3647 197.91Z" fill="#A78BFA"/>
<path d="M119.765 153.04C137.985 153.04 152.755 138.27 152.755 120.05C152.755 101.83 137.985 87.0601 119.765 87.0601C101.545 87.0601 86.7749 101.83 86.7749 120.05C86.7749 138.27 101.545 153.04 119.765 153.04Z" fill="#8B5CF6"/>
<path d="M180.005 225.41C116.415 261.07 56.9746 225.41 56.9746 225.41C56.9746 225.41 61.4446 166.66 113.535 163.17L108.005 212.28L118.385 227.84L128.955 211.88L123.275 163.16C175.515 166.55 180.005 225.41 180.005 225.41Z" fill="#8B5CF6"/>
</svg>
